<svg xmlns="http://www.w3.org/2000/svg" version="1.1" xmlns:xlink="http://www.w3.org/1999/xlink" xmlns:svgjs="http://svgjs.dev/svgjs" width="1000" height="1000" viewBox="0 0 1000 1000"><rect width="1000" height="1000" fill="#0023ff"></rect><g transform="matrix(0.7,0,0,0.7,149.57575757575756,282.1265587044535)"><svg viewBox="0 0 396 247" data-background-color="#0023ff" preserveAspectRatio="xMidYMid meet" height="623" width="1000" xmlns="http://www.w3.org/2000/svg" xmlns:xlink="http://www.w3.org/1999/xlink"><g id="tight-bounds" transform="matrix(1,0,0,1,0.2400000000000091,-0.09999999999999432)"><svg viewBox="0 0 395.52 247.2" height="247.2" width="395.52"><g><svg></svg></g><g><svg viewBox="0 0 395.52 247.2" height="247.2" width="395.52"><g transform="matrix(1,0,0,1,75.54432,102.76114934499728)"><svg viewBox="0 0 244.43135999999998 41.677701310005425" height="41.677701310005425" width="244.43135999999998"><g><svg viewBox="0 0 244.43135999999998 41.677701310005425" height="41.677701310005425" width="244.43135999999998"><g><svg viewBox="0 0 244.43135999999998 41.677701310005425" height="41.677701310005425" width="244.43135999999998"><g><svg viewBox="0 0 244.43135999999998 41.677701310005425" height="41.677701310005425" width="244.43135999999998"><g id="textblocktransform"><svg viewBox="0 0 244.43135999999998 41.677701310005425" height="41.677701310005425" width="244.43135999999998" id="textblock"><g><svg viewBox="0 0 244.43135999999998 27.06883429070885" height="27.06883429070885" width="244.43135999999998"><g transform="matrix(1,0,0,1,0,0)"><svg width="244.43135999999998" viewBox="-0.05000000074505806 -47 572 63.349998474121094" height="27.06883429070885" data-palette-color="#f8fafc"><path d="M11.6 0.25Q9.75 0.25 8.95-0.58 8.15-1.4 8.15-3.7L8.15-3.7Q8.15-5.25 8.45-7.45 8.75-9.65 9.5-14.1L9.5-14.1Q9.6-14.7 10.3-18.98 11-23.25 11.55-27.95L11.55-27.95Q12.05-31.95 12.05-33.95L12.05-33.95Q12.05-36.2 10.4-36.2L10.4-36.2Q9.15-36.2 7.28-34.88 5.4-33.55 3.25-30.65L3.25-30.65Q2.55-29.7 1.7-29.7L1.7-29.7Q1-29.7 0.48-30.38-0.05-31.05-0.05-31.9L-0.05-31.9Q-0.05-32.75 0.25-33.52 0.55-34.3 1.35-35.4L1.35-35.4Q3.8-38.75 6.8-40.58 9.8-42.4 13.1-42.4L13.1-42.4Q15.85-42.4 17.23-40.7 18.6-39 18.6-35.75L18.6-35.75Q18.6-32.85 17.8-27.35L17.8-27.35Q20.3-34.75 24.15-38.58 28-42.4 33.2-42.4L33.2-42.4Q37.3-42.4 39.38-40.08 41.45-37.75 41.45-33.85L41.45-33.85Q41.45-31.65 40.8-28.5L40.8-28.5 37.75-14.2Q37.25-11.7 37.25-9.9L37.25-9.9Q37.25-7.8 38.23-6.75 39.2-5.7 40.95-5.7L40.95-5.7Q42.6-5.7 44.18-6.8 45.75-7.9 47.9-10.45L47.9-10.45Q48.5-11.15 49.25-11.15L49.25-11.15Q49.9-11.15 50.28-10.55 50.65-9.95 50.65-8.9L50.65-8.9Q50.65-6.95 49.7-5.8L49.7-5.8Q47.1-2.65 44.55-1.2 42 0.25 39.2 0.25L39.2 0.25Q34.95 0.25 32.55-2.27 30.15-4.8 30.15-9.05L30.15-9.05Q30.15-10.7 30.43-12.65 30.7-14.6 31.35-17.6L31.35-17.6 33.35-26.75Q33.45-27.2 33.7-28.35 33.95-29.5 34.1-30.53 34.25-31.55 34.25-32.55L34.25-32.55Q34.25-34.15 33.35-35.1 32.45-36.05 30.8-36.05L30.8-36.05Q27.8-36.05 24.8-32.85 21.8-29.65 19.25-22.53 16.7-15.4 15.25-4.3L15.25-4.3Q14.9-1.75 14.23-0.75 13.55 0.25 11.6 0.25L11.6 0.25ZM89.6-11.2Q89.9-11.3 90.5-11.3L90.5-11.3Q92.2-11.3 92.2-9.1L92.2-9.1Q92.2-7.9 91.67-7.08 91.15-6.25 90.05-6.05L90.05-6.05Q85.5-5.2 81.1-4.15L81.1-4.15 80.95-2.95Q79.55 6.9 75.37 11.63 71.2 16.35 64.95 16.35L64.95 16.35Q60.8 16.35 58.52 14.33 56.25 12.3 56.25 9.15L56.25 9.15Q56.25 3.9 60.95-0.2 65.65-4.3 75.2-7.45L75.2-7.45 76.2-14.5Q76.4-15.7 76.7-17.7L76.7-17.7Q74.35-11.5 70.7-8.45 67.05-5.4 62.55-5.4L62.55-5.4Q58.25-5.4 56-8.03 53.75-10.65 53.75-14.8L53.75-14.8Q53.75-16.65 54.15-18.88 54.55-21.1 55.4-24.9L55.4-24.9Q56.15-28.35 56.52-30.4 56.9-32.45 56.9-34.05L56.9-34.05Q56.9-36.45 55.05-36.45L55.05-36.45Q53.6-36.45 51.62-35.02 49.65-33.6 47.45-30.65L47.45-30.65Q46.75-29.7 45.9-29.7L45.9-29.7Q45.2-29.7 44.67-30.38 44.15-31.05 44.15-31.9L44.15-31.9Q44.15-33.45 45.55-35.4L45.55-35.4Q50.65-42.4 57.5-42.4L57.5-42.4Q60.55-42.4 62.27-40.55 64-38.7 64-35.1L64-35.1Q64-32.5 63.52-29.78 63.05-27.05 62.1-22.85L62.1-22.85Q61.5-20.35 61.2-18.82 60.9-17.3 60.9-16.3L60.9-16.3Q60.9-13.75 61.8-12.65 62.7-11.55 64.95-11.55L64.95-11.55Q67.65-11.55 70.47-14.53 73.3-17.5 75.57-23.55 77.85-29.6 78.85-38.35L78.85-38.35Q79.1-40.55 80-41.48 80.9-42.4 82.6-42.4L82.6-42.4Q86.1-42.4 86.1-38.9L86.1-38.9Q86.1-38.3 86.05-37.95L86.05-37.95Q85-30.5 84.1-24.5L84.1-24.5Q83.6-20.9 83.02-17.1 82.45-13.3 81.9-9.4L81.9-9.4Q85.55-10.4 89.6-11.2L89.6-11.2ZM74.4-1.85L74.45-2.2Q62.35 2 62.35 8L62.35 8Q62.35 9.4 63.22 10.33 64.1 11.25 65.7 11.25L65.7 11.25Q72.65 11.25 74.4-1.85L74.4-1.85ZM128.8-41.5Q130.34-41.2 131.12-40.45 131.9-39.7 131.9-38.7L131.9-38.7Q131.9-37.05 130.97-36.3 130.05-35.55 128.05-35.7L128.05-35.7Q123.55-36.05 121.02-36.18 118.5-36.3 114.4-36.35L114.4-36.35Q112.55-27.15 111-17.85L111-17.85Q110.45-14.45 109.84-9.98 109.25-5.5 109.05-2.75L109.05-2.75Q108.95-1.3 107.84-0.53 106.75 0.25 105.2 0.25L105.2 0.25Q103.55 0.25 102.65-0.55 101.75-1.35 101.75-2.65L101.75-2.65Q101.75-3.85 102.12-6.63 102.5-9.4 103-12.45L103-12.45Q103.55-15.5 103.84-17.75L103.84-17.75Q104.4-21.55 105.09-25.3 105.8-29.05 106.5-32.4L106.5-32.4Q106.65-33.15 106.84-34.13 107.05-35.1 107.3-36.3L107.3-36.3Q102.4-36.15 99.59-35.5 96.8-34.85 95.62-33.68 94.45-32.5 94.45-30.65L94.45-30.65Q94.45-28.95 95.45-27.4L95.45-27.4Q95.65-27.05 95.65-26.65L95.65-26.65Q95.65-25.7 94.52-24.88 93.4-24.05 92.2-24.05L92.2-24.05Q91.34-24.05 90.8-24.55L90.8-24.55Q89.8-25.4 89.15-26.98 88.5-28.55 88.5-30.55L88.5-30.55Q88.5-34.8 91.27-37.38 94.05-39.95 99.72-41.15 105.4-42.35 114.3-42.35L114.3-42.35Q119.8-42.35 123.07-42.15 126.34-41.95 128.8-41.5L128.8-41.5ZM159.34-9.1Q160.09-9.4 160.59-9.4L160.59-9.4Q161.39-9.4 161.79-8.8 162.19-8.2 162.19-7.25L162.19-7.25Q162.19-5.75 161.47-4.7 160.74-3.65 158.99-2.8L158.99-2.8Q156.04-1.4 151.34-0.58 146.64 0.25 142.09 0.25L142.09 0.25Q135.79 0.25 131.54-1.18 127.29-2.6 125.22-5.1 123.14-7.6 123.14-10.75L123.14-10.75Q123.14-15.05 125.92-18.07 128.69-21.1 134.09-22.45L134.09-22.45Q131.14-23.3 129.57-25.45 127.99-27.6 127.99-30.25L127.99-30.25Q127.99-33.85 130.27-36.63 132.54-39.4 136.39-40.9 140.24-42.4 144.84-42.4L144.84-42.4Q151.04-42.4 154.14-39.73 157.24-37.05 157.24-32.8L157.24-32.8Q157.24-29.85 156.17-28.03 155.09-26.2 153.09-26.2L153.09-26.2Q151.69-26.2 150.89-26.83 150.09-27.45 150.09-28.7L150.09-28.7Q150.09-29.55 150.34-30.55L150.34-30.55Q150.59-32.2 150.59-32.8L150.59-32.8Q150.59-34.6 149.24-35.73 147.89-36.85 144.74-36.85L144.74-36.85Q140.49-36.85 137.94-35.05 135.39-33.25 135.39-30.2L135.39-30.2Q135.39-27.85 137.32-26.33 139.24-24.8 143.59-24.65L143.59-24.65Q144.69-24.6 145.14-24.15 145.59-23.7 145.59-22.65L145.59-22.65Q145.59-19.35 142.59-19.3L142.59-19.3Q138.44-19.2 135.72-18.15 132.99-17.1 131.77-15.48 130.54-13.85 130.54-12L130.54-12Q130.54-8.9 133.44-7.33 136.34-5.75 142.64-5.75L142.64-5.75Q146.79-5.75 151.42-6.73 156.04-7.7 159.34-9.1L159.34-9.1ZM178.54 0.25Q172.59 0.25 168.19-1.93 163.79-4.1 161.44-8.1 159.09-12.1 159.09-17.4L159.09-17.4Q159.09-24.75 161.87-30.45 164.64-36.15 169.39-39.28 174.14-42.4 179.94-42.4L179.94-42.4Q185.34-42.4 188.14-39.63 190.94-36.85 190.94-32.3L190.94-32.3Q190.94-29.25 189.87-27.4 188.79-25.55 186.79-25.55L186.79-25.55Q185.39-25.55 184.59-26.2 183.79-26.85 183.79-28.1L183.79-28.1Q183.79-28.55 183.99-29.75L183.99-29.75Q184.29-31.25 184.29-32.15L184.29-32.15Q184.29-36.7 179.44-36.7L179.44-36.7Q176.14-36.7 173.14-34.55 170.14-32.4 168.29-28.23 166.44-24.05 166.44-18.3L166.44-18.3Q166.44-12.3 169.79-9.03 173.14-5.75 179.69-5.75L179.69-5.75Q182.94-5.75 186.27-6.58 189.59-7.4 193.64-9.1L193.64-9.1Q194.39-9.4 194.89-9.4L194.89-9.4Q195.69-9.4 196.09-8.8 196.49-8.2 196.49-7.25L196.49-7.25Q196.49-4.2 193.19-2.75L193.19-2.75Q189.64-1.2 185.82-0.48 181.99 0.25 178.54 0.25L178.54 0.25ZM238.89-11.15Q239.54-11.15 239.91-10.55 240.29-9.95 240.29-8.9L240.29-8.9Q240.29-6.95 239.34-5.8L239.34-5.8Q234.39 0.25 228.79 0.25L228.79 0.25Q223.94 0.25 221.04-3.5 218.14-7.25 218.14-14.25L218.14-14.25Q218.14-15.95 218.29-17.65L218.29-17.65Q214.99-17.05 211.09-16.75L211.09-16.75Q208.49-16.55 207.54-16.5L207.54-16.5Q206.54-11.4 204.74-4L204.74-4Q203.69 0.35 200.74 0.35L200.74 0.35Q197.54 0.35 197.54-2.55L197.54-2.55Q197.54-3.2 197.79-4.35L197.79-4.35Q199.49-11.2 200.49-15.95L200.49-15.95 198.09-15.85Q196.44-15.85 195.69-16.43 194.94-17 194.94-18.3L194.94-18.3Q194.94-19.95 195.89-20.73 196.84-21.5 199.04-21.6L199.04-21.6 201.69-21.7Q202.99-28.75 202.99-32.45L202.99-32.45Q202.99-34.8 202.29-35.65 201.59-36.5 200.44-36.5L200.44-36.5Q196.94-36.5 192.54-30.65L192.54-30.65Q191.89-29.8 191.09-29.8L191.09-29.8Q190.39-29.8 189.89-30.45 189.39-31.1 189.39-32.1L189.39-32.1Q189.39-33.65 190.64-35.4L190.64-35.4Q192.84-38.45 196.19-40.43 199.54-42.4 202.99-42.4L202.99-42.4Q206.24-42.4 208.01-40.18 209.79-37.95 209.79-33.25L209.79-33.25Q209.79-29.1 208.59-22L208.59-22 213.49-22.25Q216.64-22.4 218.89-22.75L218.89-22.75Q219.79-28.25 221.64-33.05 223.49-37.85 226.24-40.85 228.99-43.85 232.39-43.85L232.39-43.85Q234.89-43.85 236.34-41.88 237.79-39.9 237.79-36.7L237.79-36.7Q237.79-24.3 225.14-19.5L225.14-19.5Q224.99-17.5 224.99-15.35L224.99-15.35Q224.99-10.1 226.29-7.9 227.59-5.7 229.94-5.7L229.94-5.7Q231.99-5.7 233.69-6.78 235.39-7.85 237.54-10.45L237.54-10.45Q238.14-11.15 238.89-11.15L238.89-11.15ZM232.14-39.5Q231.04-39.5 229.81-37.5 228.59-35.5 227.49-32.05 226.39-28.6 225.74-24.5L225.74-24.5Q229.74-26.15 231.64-29.2 233.54-32.25 233.54-37.05L233.54-37.05Q233.54-38.2 233.14-38.85 232.74-39.5 232.14-39.5L232.14-39.5ZM245.44 0.25Q243.59 0.25 242.79-0.58 241.99-1.4 241.99-3.7L241.99-3.7Q241.99-5.25 242.29-7.45 242.59-9.65 243.34-14.1L243.34-14.1Q243.44-14.7 244.14-18.98 244.84-23.25 245.39-27.95L245.39-27.95Q245.89-31.95 245.89-33.95L245.89-33.95Q245.89-36.2 244.24-36.2L244.24-36.2Q242.99-36.2 241.11-34.88 239.24-33.55 237.09-30.65L237.09-30.65Q236.39-29.7 235.54-29.7L235.54-29.7Q234.84-29.7 234.31-30.38 233.79-31.05 233.79-31.9L233.79-31.9Q233.79-32.75 234.09-33.52 234.39-34.3 235.19-35.4L235.19-35.4Q237.64-38.75 240.64-40.58 243.64-42.4 246.94-42.4L246.94-42.4Q249.69-42.4 251.06-40.7 252.44-39 252.44-35.75L252.44-35.75Q252.44-32.85 251.64-27.35L251.64-27.35Q254.14-34.75 257.99-38.58 261.84-42.4 267.04-42.4L267.04-42.4Q271.14-42.4 273.21-40.08 275.29-37.75 275.29-33.85L275.29-33.85Q275.29-31.65 274.64-28.5L274.64-28.5 271.59-14.2Q271.09-11.7 271.09-9.9L271.09-9.9Q271.09-7.8 272.06-6.75 273.04-5.7 274.79-5.7L274.79-5.7Q276.44-5.7 278.01-6.8 279.59-7.9 281.74-10.45L281.74-10.45Q282.34-11.15 283.09-11.15L283.09-11.15Q283.74-11.15 284.11-10.55 284.49-9.95 284.49-8.9L284.49-8.9Q284.49-6.95 283.54-5.8L283.54-5.8Q280.94-2.65 278.39-1.2 275.84 0.25 273.04 0.25L273.04 0.25Q268.79 0.25 266.39-2.27 263.99-4.8 263.99-9.05L263.99-9.05Q263.99-10.7 264.26-12.65 264.54-14.6 265.19-17.6L265.19-17.6 267.19-26.75Q267.29-27.2 267.54-28.35 267.79-29.5 267.94-30.53 268.09-31.55 268.09-32.55L268.09-32.55Q268.09-34.15 267.19-35.1 266.29-36.05 264.64-36.05L264.64-36.05Q261.64-36.05 258.64-32.85 255.64-29.65 253.09-22.53 250.54-15.4 249.09-4.3L249.09-4.3Q248.74-1.75 248.06-0.75 247.39 0.25 245.44 0.25L245.44 0.25ZM297.03 0.25Q292.58 0.25 289.01-1.75 285.43-3.75 283.33-7.63 281.23-11.5 281.23-16.9L281.23-16.9Q281.23-24.5 284.01-30.3 286.78-36.1 291.56-39.25 296.33-42.4 302.13-42.4L302.13-42.4Q306.58-42.4 310.16-40.4 313.73-38.4 315.83-34.52 317.93-30.65 317.93-25.25L317.93-25.25Q317.93-17.65 315.16-11.85 312.38-6.05 307.61-2.9 302.83 0.25 297.03 0.25L297.03 0.25ZM297.53-5.65Q301.43-5.65 304.41-8.05 307.38-10.45 308.98-14.73 310.58-19 310.58-24.4L310.58-24.4Q310.58-30.35 308.08-33.43 305.58-36.5 301.63-36.5L301.63-36.5Q297.78-36.5 294.83-34.13 291.88-31.75 290.23-27.48 288.58-23.2 288.58-17.75L288.58-17.75Q288.58-11.8 291.08-8.72 293.58-5.65 297.53-5.65L297.53-5.65ZM348.43 0.4Q341.78 0.4 337.78-2.13 333.78-4.65 333.78-9.85L333.78-9.85Q333.78-12.6 334.73-14.05 335.68-15.5 337.53-15.5L337.53-15.5Q338.88-15.5 339.73-14.8 340.58-14.1 340.58-13L340.58-13Q340.58-12 340.43-11.25L340.43-11.25Q340.43-11.05 340.35-10.55 340.28-10.05 340.28-9.5L340.28-9.5Q340.28-7.25 342.55-6.15 344.83-5.05 348.93-5.05L348.93-5.05Q353.18-5.05 355.58-6.58 357.98-8.1 357.98-10.85L357.98-10.85Q357.98-12.55 356.88-13.78 355.78-15 354.13-15.83 352.48-16.65 349.48-17.85L349.48-17.85Q345.63-19.35 343.2-20.7 340.78-22.05 339.05-24.38 337.33-26.7 337.33-30.15L337.33-30.15Q337.33-33.75 339.25-36.55 341.18-39.35 344.8-40.9 348.43-42.45 353.33-42.45L353.33-42.45Q356.98-42.45 360.03-41.38 363.08-40.3 364.9-38.1 366.73-35.9 366.73-32.7L366.73-32.7Q366.73-29.55 365.78-27.95 364.83-26.35 362.98-26.35L362.98-26.35Q361.68-26.35 360.8-27.15 359.93-27.95 359.93-29.05L359.93-29.05Q359.93-30 360.08-30.8L360.08-30.8Q360.23-32.3 360.23-32.7L360.23-32.7Q360.23-34.8 358.18-35.9 356.13-37 353.08-37L353.08-37Q348.78-37 346.5-35.43 344.23-33.85 344.23-31L344.23-31Q344.23-29.1 345.4-27.75 346.58-26.4 348.33-25.5 350.08-24.6 353.23-23.35L353.23-23.35Q357.03-21.8 359.33-20.55 361.63-19.3 363.25-17.15 364.88-15 364.88-11.85L364.88-11.85Q364.88-5.95 360.4-2.78 355.93 0.4 348.43 0.4L348.43 0.4ZM396.38-11.15Q397.03-11.15 397.4-10.55 397.78-9.95 397.78-8.9L397.78-8.9Q397.78-6.9 396.83-5.8L396.83-5.8Q394.53-3.15 392.1-1.45 389.68 0.25 386.58 0.25L386.58 0.25Q384.03 0.25 382.73-1.23 381.43-2.7 381.43-5.5L381.43-5.5Q381.43-6.9 382.13-10.5L382.13-10.5Q382.78-13.65 382.78-14.85L382.78-14.85Q382.78-15.65 382.23-15.65L382.23-15.65Q381.58-15.65 380.38-13.98 379.18-12.3 377.98-9.55 376.78-6.8 376.03-3.75L376.03-3.75Q375.08 0.25 371.33 0.25L371.33 0.25Q369.83 0.25 369.35-0.83 368.88-1.9 368.88-4.7L368.88-4.7Q368.88-6.3 368.93-7.25L368.93-7.25 368.98-11.25Q368.98-18.95 370.55-27.3 372.13-35.65 375.2-41.33 378.28-47 382.58-47L382.58-47Q384.88-47 386.3-45.03 387.73-43.05 387.73-39.9L387.73-39.9Q387.73-34.85 384.78-29.43 381.83-24 375.18-16.75L375.18-16.75Q375.03-14.15 375.03-11.4L375.03-11.4Q376.68-15.65 378.7-18.32 380.73-21 382.7-22.15 384.68-23.3 386.33-23.3L386.33-23.3Q389.58-23.3 389.58-20.05L389.58-20.05Q389.58-18.1 388.48-13L388.48-13Q387.53-8.65 387.53-7.25L387.53-7.25Q387.53-5.25 388.98-5.25L388.98-5.25Q389.98-5.25 391.35-6.48 392.73-7.7 395.03-10.45L395.03-10.45Q395.63-11.15 396.38-11.15L396.38-11.15ZM381.53-42.05Q380.63-42.05 379.53-39.48 378.43-36.9 377.4-32.52 376.38-28.15 375.73-23L375.73-23Q378.83-26.65 380.85-30.95 382.88-35.25 382.88-38.75L382.88-38.75Q382.88-40.35 382.53-41.2 382.18-42.05 381.53-42.05L381.53-42.05ZM419.22-15.35Q419.87-15.35 420.22-14.7 420.57-14.05 420.57-13.05L420.57-13.05Q420.57-10.65 419.12-10.2L419.12-10.2Q416.12-9.15 412.52-9L412.52-9Q411.57-4.8 408.77-2.27 405.97 0.25 402.42 0.25L402.42 0.25Q399.42 0.25 397.3-1.2 395.17-2.65 394.07-5.05 392.97-7.45 392.97-10.25L392.97-10.25Q392.97-14.05 394.42-17.03 395.87-20 398.42-21.68 400.97-23.35 404.07-23.35L404.07-23.35Q407.87-23.35 410.2-20.73 412.52-18.1 412.92-14.25L412.92-14.25Q415.27-14.4 418.52-15.25L418.52-15.25Q418.92-15.35 419.22-15.35L419.22-15.35ZM402.82-5.05Q404.42-5.05 405.6-6.35 406.77-7.65 407.17-10.1L407.17-10.1Q405.62-11.15 404.8-12.85 403.97-14.55 403.97-16.45L403.97-16.45Q403.97-17.25 404.12-18.05L404.12-18.05 403.87-18.05Q401.87-18.05 400.55-16.13 399.22-14.2 399.22-10.7L399.22-10.7Q399.22-7.95 400.3-6.5 401.37-5.05 402.82-5.05L402.82-5.05ZM438.57-11.15Q439.22-11.15 439.6-10.55 439.97-9.95 439.97-8.9L439.97-8.9Q439.97-6.9 439.02-5.8L439.02-5.8Q437.17-3.55 433.8-1.65 430.42 0.25 426.57 0.25L426.57 0.25Q421.32 0.25 418.42-2.6 415.52-5.45 415.52-10.4L415.52-10.4Q415.52-13.85 416.97-16.82 418.42-19.8 421-21.55 423.57-23.3 426.82-23.3L426.82-23.3Q429.72-23.3 431.47-21.58 433.22-19.85 433.22-16.9L433.22-16.9Q433.22-13.45 430.75-10.98 428.27-8.5 422.37-7.05L422.37-7.05Q423.62-4.75 427.12-4.75L427.12-4.75Q429.37-4.75 432.25-6.33 435.12-7.9 437.22-10.45L437.22-10.45Q437.82-11.15 438.57-11.15L438.57-11.15ZM425.97-18.4Q424.12-18.4 422.85-16.25 421.57-14.1 421.57-11.05L421.57-11.05 421.57-10.95Q424.52-11.65 426.22-13.05 427.92-14.45 427.92-16.3L427.92-16.3Q427.92-17.25 427.4-17.82 426.87-18.4 425.97-18.4L425.97-18.4ZM463.12 0.4Q456.47 0.4 452.47-2.13 448.47-4.65 448.47-9.85L448.47-9.85Q448.47-12.6 449.42-14.05 450.37-15.5 452.22-15.5L452.22-15.5Q453.57-15.5 454.42-14.8 455.27-14.1 455.27-13L455.27-13Q455.27-12 455.12-11.25L455.12-11.25Q455.12-11.05 455.04-10.55 454.97-10.05 454.97-9.5L454.97-9.5Q454.97-7.25 457.24-6.15 459.52-5.05 463.62-5.05L463.62-5.05Q467.87-5.05 470.27-6.58 472.67-8.1 472.67-10.85L472.67-10.85Q472.67-12.55 471.57-13.78 470.47-15 468.82-15.83 467.17-16.65 464.17-17.85L464.17-17.85Q460.32-19.35 457.89-20.7 455.47-22.05 453.74-24.38 452.02-26.7 452.02-30.15L452.02-30.15Q452.02-33.75 453.94-36.55 455.87-39.35 459.49-40.9 463.12-42.45 468.02-42.45L468.02-42.45Q471.67-42.45 474.72-41.38 477.77-40.3 479.59-38.1 481.42-35.9 481.42-32.7L481.42-32.7Q481.42-29.55 480.47-27.95 479.52-26.35 477.67-26.35L477.67-26.35Q476.37-26.35 475.49-27.15 474.62-27.95 474.62-29.05L474.62-29.05Q474.62-30 474.77-30.8L474.77-30.8Q474.92-32.3 474.92-32.7L474.92-32.7Q474.92-34.8 472.87-35.9 470.82-37 467.77-37L467.77-37Q463.47-37 461.19-35.43 458.92-33.85 458.92-31L458.92-31Q458.92-29.1 460.09-27.75 461.27-26.4 463.02-25.5 464.77-24.6 467.92-23.35L467.92-23.35Q471.72-21.8 474.02-20.55 476.32-19.3 477.94-17.15 479.57-15 479.57-11.85L479.57-11.85Q479.57-5.95 475.09-2.78 470.62 0.4 463.12 0.4L463.12 0.4ZM505.61-11.15Q506.26-11.15 506.64-10.55 507.01-9.95 507.01-8.9L507.01-8.9Q507.01-6.9 506.06-5.8L506.06-5.8Q503.91-3.15 501.36-1.45 498.81 0.25 495.51 0.25L495.51 0.25Q485.31 0.25 485.31-14.1L485.31-14.1Q485.31-16.3 485.46-18.55L485.46-18.55 483.51-18.55Q482.01-18.55 481.49-19.1 480.96-19.65 480.96-20.85L480.96-20.85Q480.96-23.65 483.21-23.65L483.21-23.65 486.06-23.65Q486.91-29.15 488.66-33.7 490.41-38.25 492.89-40.95 495.36-43.65 498.21-43.65L498.21-43.65Q500.31-43.65 501.51-41.8 502.71-39.95 502.71-37.15L502.71-37.15Q502.71-29.4 496.21-23.65L496.21-23.65 501.81-23.65Q502.61-23.65 502.96-23.3 503.31-22.95 503.31-22L503.31-22Q503.31-18.55 497.66-18.55L497.66-18.55 491.56-18.55Q491.46-16.05 491.46-14.65L491.46-14.65Q491.46-9.45 492.69-7.35 493.91-5.25 496.56-5.25L496.56-5.25Q498.71-5.25 500.36-6.55 502.01-7.85 504.26-10.45L504.26-10.45Q504.86-11.15 505.61-11.15L505.61-11.15ZM496.86-38.85Q496.11-38.85 495.19-36.98 494.26-35.1 493.44-31.78 492.61-28.45 492.06-24.4L492.06-24.4Q495.01-26.95 496.49-30.13 497.96-33.3 497.96-35.9L497.96-35.9Q497.96-38.85 496.86-38.85L496.86-38.85ZM528.46-15.35Q529.11-15.35 529.46-14.7 529.81-14.05 529.81-13.05L529.81-13.05Q529.81-10.65 528.36-10.2L528.36-10.2Q525.36-9.15 521.76-9L521.76-9Q520.81-4.8 518.01-2.27 515.21 0.25 511.66 0.25L511.66 0.25Q508.66 0.25 506.54-1.2 504.41-2.65 503.31-5.05 502.21-7.45 502.21-10.25L502.21-10.25Q502.21-14.05 503.66-17.03 505.11-20 507.66-21.68 510.21-23.35 513.31-23.35L513.31-23.35Q517.11-23.35 519.43-20.73 521.76-18.1 522.16-14.25L522.16-14.25Q524.51-14.4 527.76-15.25L527.76-15.25Q528.16-15.35 528.46-15.35L528.46-15.35ZM512.06-5.05Q513.66-5.05 514.84-6.35 516.01-7.65 516.41-10.1L516.41-10.1Q514.86-11.15 514.03-12.85 513.21-14.55 513.21-16.45L513.21-16.45Q513.21-17.25 513.36-18.05L513.36-18.05 513.11-18.05Q511.11-18.05 509.79-16.13 508.46-14.2 508.46-10.7L508.46-10.7Q508.46-7.95 509.54-6.5 510.61-5.05 512.06-5.05L512.06-5.05ZM529.06 0.25Q527.16 0.25 526.38-1.75 525.61-3.75 525.61-8.15L525.61-8.15Q525.61-14.65 527.46-20.5L527.46-20.5Q527.91-21.95 528.93-22.63 529.96-23.3 531.81-23.3L531.81-23.3Q532.81-23.3 533.21-23.05 533.61-22.8 533.61-22.1L533.61-22.1Q533.61-21.3 532.86-18.5L532.86-18.5Q532.36-16.5 532.06-15 531.76-13.5 531.56-11.3L531.56-11.3Q533.21-15.6 535.26-18.3 537.31-21 539.28-22.15 541.26-23.3 542.91-23.3L542.91-23.3Q546.16-23.3 546.16-20.05L546.16-20.05Q546.16-19.4 545.71-16.9L545.71-16.9Q545.31-14.9 545.31-14.4L545.31-14.4Q545.31-12.65 546.56-12.65L546.56-12.65Q547.96-12.65 550.16-14.85L550.16-14.85Q550.81-15.5 551.51-15.5L551.51-15.5Q552.16-15.5 552.53-14.93 552.91-14.35 552.91-13.4L552.91-13.4Q552.91-11.55 551.91-10.5L551.91-10.5Q550.51-9.05 548.63-8.03 546.76-7 544.66-7L544.66-7Q542.01-7 540.63-8.35 539.26-9.7 539.26-12L539.26-12Q539.26-12.75 539.41-13.5L539.41-13.5Q539.51-14.5 539.51-14.85L539.51-14.85Q539.51-15.65 538.96-15.65L538.96-15.65Q538.21-15.65 536.98-13.98 535.76-12.3 534.56-9.55 533.36-6.8 532.61-3.75L532.61-3.75Q532.06-1.4 531.33-0.58 530.61 0.25 529.06 0.25L529.06 0.25ZM570.55-11.15Q571.2-11.15 571.58-10.55 571.95-9.95 571.95-8.9L571.95-8.9Q571.95-6.9 571-5.8L571-5.8Q569.15-3.55 565.78-1.65 562.4 0.25 558.55 0.25L558.55 0.25Q553.3 0.25 550.4-2.6 547.5-5.45 547.5-10.4L547.5-10.4Q547.5-13.85 548.95-16.82 550.4-19.8 552.98-21.55 555.55-23.3 558.8-23.3L558.8-23.3Q561.7-23.3 563.45-21.58 565.2-19.85 565.2-16.9L565.2-16.9Q565.2-13.45 562.73-10.98 560.25-8.5 554.35-7.05L554.35-7.05Q555.6-4.75 559.1-4.75L559.1-4.75Q561.35-4.75 564.23-6.33 567.1-7.9 569.2-10.45L569.2-10.45Q569.8-11.15 570.55-11.15L570.55-11.15ZM557.95-18.4Q556.1-18.4 554.83-16.25 553.55-14.1 553.55-11.05L553.55-11.05 553.55-10.95Q556.5-11.65 558.2-13.05 559.9-14.45 559.9-16.3L559.9-16.3Q559.9-17.25 559.38-17.82 558.85-18.4 557.95-18.4L557.95-18.4Z" opacity="1" transform="matrix(1,0,0,1,0,0)" fill="#f8fafc" class="undefined-text-0" data-fill-palette-color="primary" id="text-0"></path></svg></g></svg></g><g transform="matrix(1,0,0,1,0,33.45913641472223)"><svg viewBox="0 0 244.43135999999998 8.21856489528319" height="8.21856489528319" width="244.43135999999998"><g transform="matrix(1,0,0,1,0,0)"><svg width="244.43135999999998" viewBox="1.2699999809265137 -36.040000915527344 1072.3699951171875 36.060001373291016" height="8.21856489528319" data-palette-color="#f8fafc"><path d="M9.72 0L9.72-23.66 20.95-23.66 20.95 0 9.72 0ZM1.27-25.34L1.27-32.4 29.39-32.4 29.39-25.34 1.27-25.34ZM50.31-13.16L50.31-19.46 45.73-19.46 45.73-22.29 49.34-25.93 55.88-25.93 61.13-19.87 61.13-13.16 50.31-13.16ZM43.99 0L33.2 0 33.2-25.93 43.99-25.93 43.99 0ZM75.02-25.93L75.02 0 70.7 0 64.23-6.47 64.23-19.46 70.7-25.93 75.02-25.93ZM92.35-10.4L76.73-10.4 76.73-14.92 82.42-14.92 82.42-19.46 76.73-19.46 76.73-25.93 85.88-25.93 92.35-19.46 92.35-10.4ZM88.01 0L76.73 0 76.73-6.05 91.23-6.05 91.23-3.25 88.01 0ZM124.58 0L114.03 0 114.03-19.46 98.67-19.46 98.67-22.68 101.92-25.93 118.11-25.93 124.58-19.46 124.58 0ZM100.85-15.09L112.32-15.09 112.32-10.6 106.76-10.6 106.76-6.05 112.32-6.05 112.32-3.2 109.1 0 100.85 0 96.5-4.27 96.5-10.77 100.85-15.09ZM140.52-32.4L140.52-6.47 147.65-6.47 147.65 0 136.22 0 129.73-6.47 129.73-19.46 127.58-19.46 127.58-25.93 129.73-25.93 129.73-28.74 140.52-32.4ZM148.04-19.46L142.23-19.46 142.23-25.93 148.04-25.93 148.04-19.46ZM172.52 0L172.52-10.3 161.53-32.4 172.13-32.4 183.33-9.55 183.33 0 172.52 0ZM194.47-32.4L184.02-11.82 178.77-22.46 184.09-32.4 194.47-32.4ZM222.1-19.46L222.1-6.47 215.63 0 208.41 0 208.41-6.05 211.09-6.05 211.09-19.46 208.41-19.46 208.41-25.93 215.63-25.93 222.1-19.46ZM203.89-19.46L203.89-6.05 206.7-6.05 206.7 0 199.45 0 192.98-6.47 192.98-19.46 199.45-25.93 206.7-25.93 206.7-19.46 203.89-19.46ZM244.05-25.93L254.84-25.93 254.84 0 244.05 0 244.05-25.93ZM237.53-25.93L237.53-6.47 242.34-6.47 242.34-3.25 239.21 0 233.23 0 226.74-6.47 226.74-25.93 237.53-25.93ZM277.03-13.16L277.03-19.46 272.44-19.46 272.44-22.29 276.05-25.93 282.59-25.93 287.84-19.87 287.84-13.16 277.03-13.16ZM270.71 0L259.91 0 259.91-25.93 270.71-25.93 270.71 0ZM304.42 0L304.42-32.4 315.21-32.4 315.21-17.92 325.17-17.92 325.17-11.55 315.21-11.55 315.21 0 304.42 0ZM322.58-25.93L316.92-25.93 316.92-32.4 333.37-32.4 333.37-21.66 322.58-21.66 322.58-25.93ZM345.01-25.93L345.01 0 340.69 0 334.22-6.47 334.22-19.46 340.69-25.93 345.01-25.93ZM362.35-10.4L346.72-10.4 346.72-14.92 352.41-14.92 352.41-19.46 346.72-19.46 346.72-25.93 355.88-25.93 362.35-19.46 362.35-10.4ZM358 0L346.72 0 346.72-6.05 361.22-6.05 361.22-3.25 358 0ZM377.51-25.93L377.51 0 373.19 0 366.72-6.47 366.72-19.46 373.19-25.93 377.51-25.93ZM394.84-10.4L379.22-10.4 379.22-14.92 384.9-14.92 384.9-19.46 379.22-19.46 379.22-25.93 388.37-25.93 394.84-19.46 394.84-10.4ZM390.49 0L379.22 0 379.22-6.05 393.72-6.05 393.72-3.25 390.49 0ZM410.51-32.4L410.51-6.47 417.64-6.47 417.64 0 406.22 0 399.72-6.47 399.72-19.46 397.57-19.46 397.57-25.93 399.72-25.93 399.72-28.74 410.51-32.4ZM418.03-19.46L412.22-19.46 412.22-25.93 418.03-25.93 418.03-19.46ZM441.88 0L441.88-23.66 453.11-23.66 453.11 0 441.88 0ZM433.43-25.34L433.43-32.4 461.56-32.4 461.56-25.34 433.43-25.34ZM492.12-19.46L492.12-6.47 485.65 0 478.42 0 478.42-6.05 481.11-6.05 481.11-19.46 478.42-19.46 478.42-25.93 485.65-25.93 492.12-19.46ZM473.91-19.46L473.91-6.05 476.72-6.05 476.72 0 469.46 0 462.99-6.47 462.99-19.46 469.46-25.93 476.72-25.93 476.72-19.46 473.91-19.46ZM517.09 0L517.09-23.66 528.32-23.66 528.32 0 517.09 0ZM508.64-25.34L508.64-32.4 536.77-32.4 536.77-25.34 508.64-25.34ZM540.58 0L540.58-35.82 551.37-35.82 551.37 0 540.58 0ZM557.84 0L557.84-19.46 553.08-19.46 553.08-22.73 556.25-25.93 562.16-25.93 568.65-19.46 568.65 0 557.84 0ZM584.08-25.93L584.08 0 579.76 0 573.29-6.47 573.29-19.46 579.76-25.93 584.08-25.93ZM601.41-10.4L585.79-10.4 585.79-14.92 591.48-14.92 591.48-19.46 585.79-19.46 585.79-25.93 594.94-25.93 601.41-19.46 601.41-10.4ZM597.07 0L585.79 0 585.79-6.05 600.29-6.05 600.29-3.25 597.07 0ZM619.25 0L619.25-32.4 630.05-32.4 630.05-17.92 640.01-17.92 640.01-11.55 630.05-11.55 630.05 0 619.25 0ZM637.42-25.93L631.75-25.93 631.75-32.4 648.21-32.4 648.21-21.66 637.42-21.66 637.42-25.93ZM651.4 0L651.4-25.93 662.22-25.93 662.22 0 651.4 0ZM651.4-29.15L651.4-36.04 662.22-36.04 662.22-29.15 651.4-29.15ZM678.21 0L667.32 0 667.32-25.93 678.21-25.93 678.21 0ZM684.61 0L684.61-19.46 679.97-19.46 679.97-22.29 683.58-25.93 689.59-25.93 695.42-20.09 695.42 0 684.61 0ZM710.99-25.93L710.99 0 706.67 0 700.2-6.47 700.2-19.46 706.67-25.93 710.99-25.93ZM728.33-10.4L712.7-10.4 712.7-14.92 718.39-14.92 718.39-19.46 712.7-19.46 712.7-25.93 721.86-25.93 728.33-19.46 728.33-10.4ZM723.98 0L712.7 0 712.7-6.05 727.21-6.05 727.21-3.25 723.98 0ZM732.72-20.12L738.56-25.93 742.88-25.93 742.88-16.77 755.18-16.77 760.8-11.11 760.8-6.05 754.77 0 750.01 0 750.01-9.79 738.34-9.79 732.72-15.19 732.72-20.12ZM743.51-7.42L743.51-4.76 748.3-4.76 748.3 0 737.19-0.02 732.7-5.35 732.7-7.42 743.51-7.42ZM750.01-19.14L750.01-21.17 744.59-21.17 744.59-25.93 756.06-25.93 759.92-22.07 759.92-19.14 750.01-19.14ZM776.1-32.4L776.1-6.47 783.23-6.47 783.23 0 771.8 0 765.31-6.47 765.31-19.46 763.16-19.46 763.16-25.93 765.31-25.93 765.31-28.74 776.1-32.4ZM783.62-19.46L777.81-19.46 777.81-25.93 783.62-25.93 783.62-19.46ZM800.61 0L800.61-32.4 811.4-32.4 811.4-17.92 821.36-17.92 821.36-11.55 811.4-11.55 811.4 0 800.61 0ZM818.77-25.93L813.11-25.93 813.11-32.4 829.56-32.4 829.56-21.66 818.77-21.66 818.77-25.93ZM859.54-19.46L859.54-6.47 853.07 0 845.85 0 845.85-6.05 848.53-6.05 848.53-19.46 845.85-19.46 845.85-25.93 853.07-25.93 859.54-19.46ZM841.33-19.46L841.33-6.05 844.14-6.05 844.14 0 836.89 0 830.42-6.47 830.42-19.46 836.89-25.93 844.14-25.93 844.14-19.46 841.33-19.46ZM893.3-19.46L893.3-6.47 886.83 0 879.61 0 879.61-6.05 882.29-6.05 882.29-19.46 879.61-19.46 879.61-25.93 886.83-25.93 893.3-19.46ZM875.09-19.46L875.09-6.05 877.9-6.05 877.9 0 870.65 0 864.18-6.47 864.18-19.46 870.65-25.93 877.9-25.93 877.9-19.46 875.09-19.46ZM909.24-32.4L909.24-6.47 916.37-6.47 916.37 0 904.95 0 898.45-6.47 898.45-19.46 896.3-19.46 896.3-25.93 898.45-25.93 898.45-28.74 909.24-32.4ZM916.76-19.46L910.95-19.46 910.95-25.93 916.76-25.93 916.76-19.46ZM926.92 0L917.62-25.93 927.92-25.93 932.14-12.43 935.14-21.78 939.03-9.84 935.95 0.02 935.93 0 926.92 0ZM944.03 0L935.29-25.93 945.47-25.93 953.82 0 944.03 0ZM963.37-25.93L954.9-1.61 950.35-15.58 953.26-25.93 963.37-25.93ZM976.13-25.93L976.13 0 971.81 0 965.34-6.47 965.34-19.46 971.81-25.93 976.13-25.93ZM993.47-10.4L977.84-10.4 977.84-14.92 983.53-14.92 983.53-19.46 977.84-19.46 977.84-25.93 987-25.93 993.47-19.46 993.47-10.4ZM989.12 0L977.84 0 977.84-6.05 992.34-6.05 992.34-3.25 989.12 0ZM1025.69 0L1015.14 0 1015.14-19.46 999.79-19.46 999.79-22.68 1003.03-25.93 1019.22-25.93 1025.69-19.46 1025.69 0ZM1001.96-15.09L1013.44-15.09 1013.44-10.6 1007.87-10.6 1007.87-6.05 1013.44-6.05 1013.44-3.2 1010.21 0 1001.96 0 997.62-4.27 997.62-10.77 1001.96-15.09ZM1047.66-13.16L1047.66-19.46 1043.07-19.46 1043.07-22.29 1046.68-25.93 1053.23-25.93 1058.48-19.87 1058.48-13.16 1047.66-13.16ZM1041.34 0L1030.55 0 1030.55-25.93 1041.34-25.93 1041.34 0ZM1062.84 0L1062.84-7.54 1073.64-7.54 1073.64 0 1062.84 0Z" opacity="1" transform="matrix(1,0,0,1,0,0)" fill="#f8fafc" class="undefined-text-1" data-fill-palette-color="secondary" id="text-1"></path></svg></g></svg></g></svg></g></svg></g><g></g></svg></g></svg></g></svg></g><g><path d="M78.616 96.371A122.216 122.216 0 0 1 316.904 96.371L314.463 96.371A119.775 119.775 0 0 0 81.057 96.371L78.616 96.371M78.616 150.829A122.216 122.216 0 0 0 316.904 150.829L314.463 150.829A119.775 119.775 0 0 1 81.057 150.829L78.616 150.829" fill="#f8fafc" stroke="transparent" data-fill-palette-color="tertiary"></path></g></svg></g><defs></defs></svg><rect width="395.52" height="247.2" fill="none" stroke="none" visibility="hidden"></rect></g></svg></g></svg>